# xmcd
#
# Track frame offsets: 
#        150
#        16282
#        34027
#        60514
#        71088
#        83612
#        86160
#        96141
#        121334
#        134548
#        165744
#        188009
#        210398
#        247265
#        256328
#
# Disc length: 3774 seconds
#
# Revision: 5
# Processed by: cddbd v1.5.2PL0 Copyright (c) Steve Scherf et al.
# Submitted via: ExactAudioCopyFreeDBPlugin 1.0
#
DISCID=ca0ebc0f
DTITLE=Les Cowboys Fringants - Attache ta tuque ! [CD2]
DYEAR=2003
DGENRE=Rock
TTITLE0=La Manifestation
TTITLE1=Maurice au Bistro
TTITLE2=Banlieue
TTITLE3=La Sainte Paix
TTITLE4=Robert Bob Bourgouin
TTITLE5=Su' Mon Big Wheel (C'tait l'fun)
TTITLE6=Awikatchikaën
TTITLE7=Le Roi Katshé (1ère Partie)
TTITLE8=Joyeux Calvaire
TTITLE9=Le Roi Katshé (2ème Partie)
TTITLE10=Impala Blues
TTITLE11=En Berne
TTITLE12=L'Hiver Approche
TTITLE13=La Toune Cachée
TTITLE14=Un P'tit Tour
EXTD=YEAR: 2003
EXTT0=
EXTT1=
EXTT2=
EXTT3=
EXTT4=
EXTT5=
EXTT6=
EXTT7=
EXTT8=
EXTT9=
EXTT10=
EXTT11=
EXTT12=
EXTT13=
EXTT14=
PLAYORDER=
